<?xml version="1.0" encoding="UTF-8" standalone="no" ?>
<!DOCTYPE svg PUBLIC "-//W3C//DTD SVG 1.1//EN" "http://www.w3.org/Graphics/SVG/1.1/DTD/svg11.dtd">
<svg xmlns="http://www.w3.org/2000/svg" xmlns:xlink="http://www.w3.org/1999/xlink" version="1.1" viewBox="0 0 1280 1024" xml:space="preserve">
<desc>Created with Fabric.js 4.4.0</desc>
<defs>
</defs>
<g transform="matrix(1 0 0 1 640 512)" id="background-logo"  >
<rect style="stroke: none; stroke-width: 0; stroke-dasharray: none; stroke-linecap: butt; stroke-dashoffset: 0; stroke-linejoin: miter; stroke-miterlimit: 4; fill: rgb(255,255,255); fill-opacity: 0; fill-rule: nonzero; opacity: 1;"  paint-order="stroke"  x="-640" y="-512" rx="0" ry="0" width="1280" height="1024" />
</g>
<g transform="matrix(1.9211538461538462 0 0 1.9211538461538462 640 394.9995925882467)" id="logo-logo"  >
<g style=""  paint-order="stroke"   >
		<g transform="matrix(0.5560602669672771 0 0 0.5560602669672771 37.31164391350427 0)"  >
<path style="stroke: none; stroke-width: 1; stroke-dasharray: none; stroke-linecap: butt; stroke-dashoffset: 0; stroke-linejoin: miter; stroke-miterlimit: 4; fill: rgb(236,122,10); fill-rule: nonzero; opacity: 1;"  paint-order="stroke"  transform=" translate(-427.05, -359.95)" d="M 509.3 472.9 L 516.2 485.2 L 399.80000000000007 525.8 L 363.4000000000001 486.49999999999994 L 366.6000000000001 431.19999999999993 L 509.3 472.9 z M 626.5 415.4 L 534.1 389.79999999999995 L 372.6 422.4 L 515.7 466 L 620.3000000000001 418.7 L 518.7 468.7 L 524.3000000000001 478.3 L 629.6 425.2 L 626.5 415.4 z M 348.9 226.5 L 354.7 323 L 341.7 320.1 L 336.09999999999997 208.20000000000002 L 339.49999999999994 208.10000000000002 L 339.3999999999999 203.60000000000002 L 283.2999999999999 209.40000000000003 L 339.1999999999999 195.50000000000003 L 357.09999999999985 195.10000000000002 L 357.1999999999999 201.40000000000003 L 380.89999999999986 194.50000000000003 L 398.79999999999984 194.10000000000002 L 399.09999999999985 206.8 L 401.99999999999983 206.70000000000002 L 421.09999999999985 340.8 L 410.79999999999984 338 L 392.29999999999984 225.6 L 348.9 226.5 z M 357.4 207.7 L 381.2 207.2 L 381.09999999999997 202.5 L 357.29999999999995 203 L 357.4 207.7 z M 259.9 230.5 L 330.59999999999997 226.4 L 329.9 210.20000000000002 L 248.2 218.3 L 224.5 292.5 L 334.3 318.8 L 246.20000000000002 282.40000000000003 L 259.9 230.5 z" stroke-linecap="round" />
</g>
		<g transform="matrix(0.5560602669672771 0 0 0.5560602669672771 -41.42648988906217 19.531159171604543)"  >
<path style="stroke: none; stroke-width: 1; stroke-dasharray: none; stroke-linecap: butt; stroke-dashoffset: 0; stroke-linejoin: miter; stroke-miterlimit: 4; fill: rgb(0,0,0); fill-rule: nonzero; opacity: 1;"  paint-order="stroke"  transform=" translate(-285.45000000000005, -393.35)" d="M 214.9 392.1 C 215.3 395.8 215.3 399.40000000000003 214.9 402.70000000000005 C 214.4 406.90000000000003 213.3 410.50000000000006 211.70000000000002 413.1 C 210.00000000000003 416 207.9 417.8 205.4 418 C 203.20000000000002 418.2 201.1 417.3 199.20000000000002 415.4 C 197.60000000000002 413.9 196.10000000000002 411.79999999999995 194.9 409.29999999999995 C 194.20000000000002 407.9 193.6 406.4 193.1 404.9 C 192 401.7 191.29999999999998 398.2 190.9 394.4 C 190.4 388.7 190.8 383.4 192 379.2 C 193.6 373.3 196.7 369.3 200.5 369 C 207 368.4 213.5 378.7 214.9 392.1 z M 179.9 335.2 L 156.70000000000002 277.2 L 139.00000000000003 277.59999999999997 L 153.00000000000003 358.69999999999993 C 161.2 338.5 179.9 335.2 179.9 335.2 z M 415.8 342.8 L 194.5 290.5 L 166.2 291.1 L 391.6 343.40000000000003 L 415.8 342.8 z M 480.6 395.8 L 470 398.2 L 463.7 384.7 L 387.6 399.5 L 392.1 412.3 L 372.20000000000005 416.7 L 359.40000000000003 379.2 L 302.90000000000003 356.4 L 265.50000000000006 369.2 L 265.00000000000006 343.59999999999997 L 178.50000000000006 315.9 L 169.50000000000006 296.9 L 386.6 346.59999999999997 L 392.20000000000005 362.79999999999995 L 449.6 355.59999999999997 L 445.3 346.99999999999994 L 426.2 340.79999999999995 L 423.7 327.99999999999994 L 460.4 341.09999999999997 L 480.2 365.49999999999994 L 480.59999999999997 381.49999999999994 L 480.6 395.8 z M 455.1 366.8 L 453.20000000000005 363 L 394.50000000000006 369.8 L 396.1000000000001 374.5 L 455.1 366.8 z M 295.3 405.6 C 294.6 405.5 294 405.40000000000003 293.3 405.5 C 292.90000000000003 405.5 292.5 405.6 292.1 405.7 C 289 406.5 286.5 409.59999999999997 284.90000000000003 414 C 283.1 419 282.50000000000006 425.6 283.40000000000003 432.8 C 284.3 440 286.6 446.40000000000003 289.50000000000006 451 C 292.50000000000006 455.6 296.1000000000001 458.2 299.80000000000007 457.8 C 307.00000000000006 457.1 311.4000000000001 444.8 309.6000000000001 430.40000000000003 C 308 417.4 301.8 406.9 295.3 405.6 z M 340.7 385.8 C 352.2 400.40000000000003 365.7 431.5 348.8 469.9 C 340.7 486.79999999999995 335.40000000000003 485.09999999999997 294.40000000000003 489.59999999999997 C 271.8 492.09999999999997 250.10000000000002 468.9 245.60000000000002 437.59999999999997 C 239.20000000000002 445.79999999999995 230.10000000000002 445.49999999999994 200.40000000000003 448.7 C 200.40000000000003 448.7 200.30000000000004 448.7 200.30000000000004 448.7 C 199.70000000000005 448.8 199.10000000000005 448.9 198.50000000000003 449 C 184.40000000000003 450.5 171.10000000000002 441 163.00000000000003 425.6 C 142.30000000000004 433.3 130.10000000000002 442.70000000000005 130.10000000000002 452.90000000000003 C 130.10000000000002 479.1 210.60000000000002 500.3 309.90000000000003 500.3 C 323.20000000000005 500.3 336.1 499.90000000000003 348.6 499.2 C 321.8 505.7 288.70000000000005 509.5 253.00000000000003 509.5 C 163.10000000000002 509.5 90.30000000000004 485.3 90.30000000000004 455.4 C 90.30000000000004 437.4 116.80000000000004 421.4 157.50000000000006 411.59999999999997 C 156.30000000000007 407.29999999999995 155.50000000000006 402.79999999999995 155.20000000000005 398.09999999999997 C 152.80000000000004 368.59999999999997 167.70000000000005 343.79999999999995 188.20000000000005 341.99999999999994 C 188.20000000000005 341.99999999999994 188.20000000000005 341.8999999999999 188.20000000000005 341.8999999999999 C 214.40000000000003 339.5999999999999 232.60000000000005 337.2999999999999 243.00000000000006 350.49999999999994 C 249.10000000000005 358.09999999999997 255.80000000000007 370.99999999999994 257.30000000000007 387.49999999999994 C 263.30000000000007 380.3999999999999 271.1000000000001 375.99999999999994 279.9000000000001 375.29999999999995 C 309.2 373.3 329.1 371.1 340.7 385.8 z M 217.7 391.9 C 215.7 373 203.39999999999998 358.79999999999995 190 360.09999999999997 C 176.6 361.29999999999995 167 377.59999999999997 168.6 396.7 C 169 400.9 169.79999999999998 404.9 171.1 408.59999999999997 C 172.7 413.29999999999995 175.1 417.4 177.9 420.7 C 183 426.8 189.70000000000002 430.2 196.6 429.5 C 204.9 428.6 211.7 422 215.2 412.6 C 216.39999999999998 409.5 217.2 406.1 217.6 402.6 C 218.1 399.1 218.1 395.5 217.7 391.9 z M 313.7 430.1 C 312.5 420.40000000000003 308.59999999999997 411.70000000000005 303.3 405.5 C 302.8 404.9 302.2 404.3 301.7 403.7 C 296.2 398.09999999999997 289.5 394.9 282.59999999999997 395.5 L 282.59999999999997 395.5 C 277.7 395.9 273.29999999999995 398 269.7 401.5 C 268.09999999999997 403 266.7 404.9 265.4 406.9 C 261 414.09999999999997 258.9 424.09999999999997 260.2 434.9 C 262.8 455.59999999999997 277 471.09999999999997 291.8 469.5 L 291.8 469.5 C 306.5 468 316.3 450.4 313.7 430.1 z" stroke-linecap="round" />
</g>
</g>
</g>
<g transform="matrix(1.9211538461538462 0 0 1.9211538461538462 641.2765166766826 679.9587160397334)" id="text-logo"  >
<g style=""  paint-order="stroke"   >
		<g transform="matrix(1 0 0 1 0 0)" id="text-logo-path-0"  >
<path style="stroke: none; stroke-width: 0; stroke-dasharray: none; stroke-linecap: butt; stroke-dashoffset: 0; stroke-linejoin: miter; stroke-miterlimit: 4; fill: rgb(0,0,0); fill-rule: nonzero; opacity: 1;"  paint-order="stroke"  transform=" translate(-309.815, 16.005000000000003)" d="M 23.8 -19.6 L 23.8 -12.96 L 7.78 -12.96 L 7.78 -19.6 L 23.8 -19.6 Z M 10.52 -31.99 L 10.52 0 L 2.26 0 L 2.26 -31.99 L 10.52 -31.99 Z M 29.33 -31.99 L 29.33 0 L 21.12 0 L 21.12 -31.99 L 29.33 -31.99 Z M 61.74 -6.64 L 61.74 0 L 44.85 0 L 44.85 -6.64 L 61.74 -6.64 Z M 47.77 -31.99 L 47.77 0 L 39.51 0 L 39.51 -31.99 L 47.77 -31.99 Z M 59.57 -19.6 L 59.57 -13.21 L 44.85 -13.21 L 44.85 -19.6 L 59.57 -19.6 Z M 61.81 -31.99 L 61.81 -25.33 L 44.85 -25.33 L 44.85 -31.99 L 61.81 -31.99 Z M 70.29 -31.99 L 83.08 -31.99 Q 86.84 -31.99 89.58 -30.88 Q 92.33 -29.77 93.82 -27.62 Q 95.32 -25.47 95.32 -22.28 L 95.32 -22.28 Q 95.32 -19.42 94.47 -17.57 Q 93.63 -15.71 92.12 -14.53 Q 90.62 -13.36 88.59 -12.52 L 88.59 -12.52 L 85.89 -10.88 L 75.45 -10.88 L 75.41 -17.53 L 82.99 -17.53 Q 84.35 -17.53 85.26 -17.97 Q 86.18 -18.41 86.63 -19.28 Q 87.08 -20.15 87.08 -21.42 L 87.08 -21.42 Q 87.08 -23.27 86.07 -24.3 Q 85.06 -25.33 83.08 -25.33 L 83.08 -25.33 L 78.53 -25.33 L 78.53 0 L 70.29 0 L 70.29 -31.99 Z M 87.54 0 L 80.6 -14.08 L 89.34 -14.15 L 96.37 -0.35 L 96.37 0 L 87.54 0 Z M 105.29 -31.99 L 118.08 -31.99 Q 121.84 -31.99 124.58 -30.88 Q 127.33 -29.77 128.83 -27.62 Q 130.32 -25.47 130.32 -22.28 L 130.32 -22.28 Q 130.32 -19.42 129.47 -17.57 Q 128.63 -15.71 127.12 -14.53 Q 125.62 -13.36 123.6 -12.52 L 123.6 -12.52 L 120.89 -10.88 L 110.46 -10.88 L 110.41 -17.53 L 117.99 -17.53 Q 119.36 -17.53 120.27 -17.97 Q 121.18 -18.41 121.63 -19.28 Q 122.08 -20.15 122.08 -21.42 L 122.08 -21.42 Q 122.08 -23.27 121.07 -24.3 Q 120.06 -25.33 118.08 -25.33 L 118.08 -25.33 L 113.53 -25.33 L 113.53 0 L 105.29 0 L 105.29 -31.99 Z M 122.54 0 L 115.6 -14.08 L 124.34 -14.15 L 131.37 -0.35 L 131.37 0 L 122.54 0 Z M 162.51 -6.64 L 162.51 0 L 145.61 0 L 145.61 -6.64 L 162.51 -6.64 Z M 148.54 -31.99 L 148.54 0 L 140.27 0 L 140.27 -31.99 L 148.54 -31.99 Z M 160.33 -19.6 L 160.33 -13.21 L 145.61 -13.21 L 145.61 -19.6 L 160.33 -19.6 Z M 162.58 -31.99 L 162.58 -25.33 L 145.61 -25.33 L 145.61 -31.99 L 162.58 -31.99 Z M 171.06 -31.99 L 183.85 -31.99 Q 187.6 -31.99 190.35 -30.88 Q 193.1 -29.77 194.59 -27.62 Q 196.08 -25.47 196.08 -22.28 L 196.08 -22.28 Q 196.08 -19.42 195.24 -17.57 Q 194.39 -15.71 192.89 -14.53 Q 191.38 -13.36 189.36 -12.52 L 189.36 -12.52 L 186.66 -10.88 L 176.22 -10.88 L 176.18 -17.53 L 183.76 -17.53 Q 185.12 -17.53 186.03 -17.97 Q 186.94 -18.41 187.39 -19.28 Q 187.84 -20.15 187.84 -21.42 L 187.84 -21.42 Q 187.84 -23.27 186.83 -24.3 Q 185.82 -25.33 183.85 -25.33 L 183.85 -25.33 L 179.3 -25.33 L 179.3 0 L 171.06 0 L 171.06 -31.99 Z M 188.31 0 L 181.36 -14.08 L 190.11 -14.15 L 197.14 -0.35 L 197.14 0 L 188.31 0 Z M 220.23 -24.28 L 212.74 0 L 203.88 0 L 215.62 -31.99 L 221.2 -31.99 L 220.23 -24.28 Z M 226.3 0 L 218.78 -24.28 L 217.71 -31.99 L 223.35 -31.99 L 235.15 0 L 226.3 0 Z M 226.21 -12.02 L 226.21 -5.36 L 209.79 -5.36 L 209.79 -12.02 L 226.21 -12.02 Z M 273.03 -13.25 L 264.9 -13.25 L 264.86 -18.81 L 271.43 -18.81 Q 274 -18.81 275.03 -19.59 Q 276.06 -20.37 276.06 -21.93 L 276.06 -21.93 Q 276.06 -23.77 274.99 -24.55 Q 273.91 -25.33 271.49 -25.33 L 271.49 -25.33 L 268.02 -25.33 L 268.02 0 L 259.76 0 L 259.76 -31.99 L 271.49 -31.99 Q 277.51 -31.99 280.91 -29.78 Q 284.3 -27.58 284.3 -23.07 L 284.3 -23.07 Q 284.3 -21.12 283.47 -19.37 Q 282.63 -17.62 280.65 -16.55 Q 278.66 -15.47 275.19 -15.49 L 275.19 -15.49 L 273.03 -13.25 Z M 272.72 0 L 262.9 0 L 265.72 -6.64 L 272.72 -6.64 Q 274.94 -6.64 275.82 -7.56 Q 276.7 -8.48 276.7 -9.69 L 276.7 -9.69 Q 276.7 -10.81 276.34 -11.6 Q 275.98 -12.39 275.17 -12.82 Q 274.37 -13.25 273.03 -13.25 L 273.03 -13.25 L 266.44 -13.25 L 266.48 -18.81 L 274.26 -18.81 L 276.2 -16.55 Q 279.51 -16.77 281.41 -15.74 Q 283.32 -14.72 284.12 -13.04 Q 284.92 -11.36 284.92 -9.56 L 284.92 -9.56 Q 284.92 -4.79 281.84 -2.4 Q 278.77 0 272.72 0 L 272.72 0 Z M 311.73 -31.99 L 319.97 -31.99 L 319.97 -11.27 Q 319.97 -7.49 318.39 -4.88 Q 316.82 -2.26 313.98 -0.91 Q 311.13 0.44 307.29 0.44 L 307.29 0.44 Q 303.49 0.44 300.6 -0.91 Q 297.71 -2.26 296.1 -4.88 Q 294.5 -7.49 294.5 -11.27 L 294.5 -11.27 L 294.5 -31.99 L 302.78 -31.99 L 302.78 -11.27 Q 302.78 -9.45 303.29 -8.33 Q 303.79 -7.21 304.8 -6.7 Q 305.82 -6.2 307.29 -6.2 L 307.29 -6.2 Q 308.78 -6.2 309.76 -6.7 Q 310.74 -7.21 311.23 -8.33 Q 311.73 -9.45 311.73 -11.27 L 311.73 -11.27 L 311.73 -31.99 Z M 338.84 -31.99 L 338.84 0 L 330.62 0 L 330.62 -31.99 L 338.84 -31.99 Z M 370.92 -6.64 L 370.92 0 L 354.84 0 L 354.84 -6.64 L 370.92 -6.64 Z M 357.74 -31.99 L 357.74 0 L 349.5 0 L 349.5 -31.99 L 357.74 -31.99 Z M 390.15 0 L 383.09 0 L 383.14 -6.64 L 390.15 -6.64 Q 392.23 -6.64 393.66 -7.6 Q 395.09 -8.57 395.84 -10.52 Q 396.58 -12.48 396.58 -15.45 L 396.58 -15.45 L 396.58 -16.57 Q 396.58 -19.51 395.85 -21.46 Q 395.11 -23.4 393.65 -24.37 Q 392.19 -25.33 390.01 -25.33 L 390.01 -25.33 L 382.96 -25.33 L 382.96 -31.99 L 390.01 -31.99 Q 394.41 -31.99 397.78 -30.01 Q 401.15 -28.04 403.07 -24.55 Q 404.98 -21.07 404.98 -16.52 L 404.98 -16.52 L 404.98 -15.45 Q 404.98 -10.92 403.07 -7.43 Q 401.15 -3.93 397.81 -1.97 Q 394.48 0 390.15 0 L 390.15 0 Z M 387.86 -31.99 L 387.86 0 L 379.6 0 L 379.6 -31.99 L 387.86 -31.99 Z M 436.53 -6.64 L 436.53 0 L 419.63 0 L 419.63 -6.64 L 436.53 -6.64 Z M 422.56 -31.99 L 422.56 0 L 414.29 0 L 414.29 -31.99 L 422.56 -31.99 Z M 434.36 -19.6 L 434.36 -13.21 L 419.63 -13.21 L 419.63 -19.6 L 434.36 -19.6 Z M 436.6 -31.99 L 436.6 -25.33 L 419.63 -25.33 L 419.63 -31.99 L 436.6 -31.99 Z M 445.08 -31.99 L 457.87 -31.99 Q 461.62 -31.99 464.37 -30.88 Q 467.12 -29.77 468.61 -27.62 Q 470.1 -25.47 470.1 -22.28 L 470.1 -22.28 Q 470.1 -19.42 469.26 -17.57 Q 468.41 -15.71 466.91 -14.53 Q 465.4 -13.36 463.38 -12.52 L 463.38 -12.52 L 460.68 -10.88 L 450.24 -10.88 L 450.2 -17.53 L 457.78 -17.53 Q 459.14 -17.53 460.05 -17.97 Q 460.96 -18.41 461.41 -19.28 Q 461.87 -20.15 461.87 -21.42 L 461.87 -21.42 Q 461.87 -23.27 460.85 -24.3 Q 459.84 -25.33 457.87 -25.33 L 457.87 -25.33 L 453.32 -25.33 L 453.32 0 L 445.08 0 L 445.08 -31.99 Z M 462.33 0 L 455.38 -14.08 L 464.13 -14.15 L 471.16 -0.35 L 471.16 0 L 462.33 0 Z M 496.34 -8.61 L 496.34 -8.61 Q 496.34 -9.47 495.98 -10.13 Q 495.62 -10.79 494.48 -11.44 Q 493.35 -12.08 491.04 -12.85 L 491.04 -12.85 Q 488.98 -13.56 487.02 -14.46 Q 485.07 -15.36 483.51 -16.58 Q 481.95 -17.8 481.03 -19.46 Q 480.1 -21.12 480.1 -23.33 L 480.1 -23.33 Q 480.1 -26.15 481.73 -28.18 Q 483.35 -30.21 486.17 -31.32 Q 488.98 -32.43 492.56 -32.43 L 492.56 -32.43 Q 496.1 -32.43 498.81 -31.23 Q 501.53 -30.04 503.07 -27.8 Q 504.62 -25.55 504.62 -22.43 L 504.62 -22.43 L 496.41 -22.43 Q 496.41 -23.47 495.98 -24.26 Q 495.55 -25.05 494.66 -25.49 Q 493.77 -25.93 492.39 -25.93 L 492.39 -25.93 Q 491.04 -25.93 490.13 -25.55 Q 489.22 -25.18 488.77 -24.58 Q 488.32 -23.97 488.32 -23.23 L 488.32 -23.23 Q 488.32 -22.37 489.02 -21.73 Q 489.73 -21.09 490.98 -20.54 Q 492.23 -20 493.88 -19.45 L 493.88 -19.45 Q 497.31 -18.35 499.69 -16.89 Q 502.08 -15.42 503.33 -13.41 Q 504.58 -11.4 504.58 -8.66 L 504.58 -8.66 Q 504.58 -5.73 503.12 -3.7 Q 501.66 -1.67 498.98 -0.62 Q 496.3 0.44 492.67 0.44 L 492.67 0.44 Q 490.17 0.44 487.76 -0.2 Q 485.35 -0.83 483.41 -2.18 Q 481.46 -3.52 480.31 -5.61 Q 479.16 -7.71 479.16 -10.63 L 479.16 -10.63 L 487.42 -10.63 Q 487.42 -9.32 487.74 -8.44 Q 488.06 -7.56 488.72 -7.02 Q 489.38 -6.48 490.36 -6.25 Q 491.35 -6.02 492.67 -6.02 L 492.67 -6.02 Q 494.03 -6.02 494.84 -6.39 Q 495.64 -6.77 495.99 -7.36 Q 496.34 -7.95 496.34 -8.61 Z M 552.3 -6.64 L 552.3 0 L 536.22 0 L 536.22 -6.64 L 552.3 -6.64 Z M 539.12 -31.99 L 539.12 0 L 530.88 0 L 530.88 -31.99 L 539.12 -31.99 Z M 582.41 -6.64 L 582.41 0 L 566.32 0 L 566.32 -6.64 L 582.41 -6.64 Z M 569.22 -31.99 L 569.22 0 L 560.98 0 L 560.98 -31.99 L 569.22 -31.99 Z M 609.1 -11.01 L 617.32 -11.01 Q 617.19 -7.62 615.52 -5.04 Q 613.85 -2.46 610.89 -1.01 Q 607.94 0.44 603.94 0.44 L 603.94 0.44 Q 599.61 0.44 596.54 -1.46 Q 593.46 -3.36 591.84 -6.9 Q 590.23 -10.44 590.23 -15.34 L 590.23 -15.34 L 590.23 -16.63 Q 590.23 -21.56 591.92 -25.09 Q 593.61 -28.63 596.66 -30.54 Q 599.7 -32.45 603.81 -32.45 L 603.81 -32.45 Q 608.07 -32.45 610.98 -30.92 Q 613.89 -29.38 615.49 -26.72 Q 617.08 -24.06 617.37 -20.72 L 617.37 -20.72 L 609.15 -20.72 Q 609.1 -23.23 607.94 -24.46 Q 606.77 -25.69 603.81 -25.69 L 603.81 -25.69 Q 602.03 -25.69 600.88 -24.84 Q 599.72 -23.99 599.16 -22.03 Q 598.6 -20.06 598.6 -16.68 L 598.6 -16.68 L 598.6 -15.34 Q 598.6 -11.93 599.1 -9.96 Q 599.59 -8 600.77 -7.16 Q 601.94 -6.33 603.94 -6.33 L 603.94 -6.33 Q 605.59 -6.33 606.73 -6.81 Q 607.87 -7.29 608.48 -8.33 Q 609.08 -9.36 609.1 -11.01 L 609.1 -11.01 Z" stroke-linecap="round" />
</g>
</g>
</g>
<g transform="matrix(1.9211538461538462 0 0 1.9211538461538462 620.7780971274366 796.1108360158801)" id="tagline-d4cb05c7-40cb-4d4a-be7e-0eb21d4d4376-logo"  >
<g style=""  paint-order="stroke"   >
		<g transform="matrix(1 0 0 1 0 -18.35059624642082)" id="tagline-d4cb05c7-40cb-4d4a-be7e-0eb21d4d4376-logo-path-0"  >
<path style="stroke: none; stroke-width: 0; stroke-dasharray: none; stroke-linecap: butt; stroke-dashoffset: 0; stroke-linejoin: miter; stroke-miterlimit: 4; fill: rgb(236,122,10); fill-rule: nonzero; opacity: 1;"  paint-order="stroke"  transform=" translate(-260.01, 9.802073742841712)" d="M 1.12 -5.04 L 1.12 -5.04 L 1.12 -14 Q 1.12 -16.94 2.45 -18.27 Q 3.77 -19.61 6.73 -19.61 L 6.73 -19.61 L 16.8 -19.61 L 16.8 -15.68 L 7.83 -15.68 Q 6.15 -15.68 6.17 -14 L 6.17 -14 L 6.17 -5.04 Q 6.17 -4.4 6.54 -4.02 Q 6.92 -3.64 7.51 -3.64 Q 8.09 -3.64 8.79 -3.65 Q 9.49 -3.66 10.25 -3.69 Q 11.01 -3.72 11.78 -3.75 Q 12.55 -3.77 13.77 -3.86 Q 14.98 -3.95 16.8 -4.06 L 16.8 -4.06 L 16.8 -0.27 Q 10.71 0.27 6.63 0.27 L 6.63 0.27 Q 6.54 0.27 6.44 0.27 L 6.44 0.27 Q 3.69 0.27 2.41 -1.01 Q 1.12 -2.3 1.12 -5.04 Z M 30.23 -5.32 L 30.23 -5.32 L 30.23 -14.27 Q 30.23 -17.21 31.56 -18.55 Q 32.88 -19.88 35.84 -19.88 L 35.84 -19.88 L 42.84 -19.88 Q 45.78 -19.88 47.1 -18.55 Q 48.43 -17.23 48.43 -14.27 L 48.43 -14.27 L 48.43 -5.32 Q 48.43 -2.38 47.1 -1.05 Q 45.78 0.27 42.84 0.27 L 42.84 0.27 L 35.84 0.27 Q 32.9 0.27 31.56 -1.05 Q 30.23 -2.38 30.23 -5.32 Z M 35.28 -14.27 L 35.28 -5.32 Q 35.28 -3.64 36.94 -3.64 L 36.94 -3.64 L 41.72 -3.64 Q 43.4 -3.64 43.38 -5.32 L 43.38 -5.32 L 43.38 -14.27 Q 43.38 -15.96 41.72 -15.96 L 41.72 -15.96 L 36.94 -15.96 Q 35.26 -15.96 35.28 -14.27 L 35.28 -14.27 Z M 68.04 0 L 62.99 0 L 62.99 -19.61 L 68.31 -19.61 L 75.04 -7.83 L 75.04 -19.61 L 80.07 -19.61 L 80.07 0 L 74.75 0 L 68.04 -11.76 L 68.04 0 Z M 94.63 -5.04 L 94.63 -5.04 L 94.63 -14 Q 94.63 -16.94 95.96 -18.27 Q 97.28 -19.61 100.24 -19.61 L 100.24 -19.61 L 110.31 -19.61 L 110.31 -15.68 L 101.34 -15.68 Q 99.66 -15.68 99.67 -14 L 99.67 -14 L 99.67 -5.04 Q 99.67 -4.4 100.05 -4.02 Q 100.43 -3.64 101.01 -3.64 Q 101.6 -3.64 102.3 -3.65 Q 103 -3.66 103.76 -3.69 Q 104.51 -3.72 105.29 -3.75 Q 106.06 -3.77 107.28 -3.86 Q 108.49 -3.95 110.31 -4.06 L 110.31 -4.06 L 110.31 -0.27 Q 104.21 0.27 100.14 0.27 L 100.14 0.27 Q 100.04 0.27 99.95 0.27 L 99.95 0.27 Q 97.2 0.27 95.91 -1.01 Q 94.63 -2.3 94.63 -5.04 Z M 129.34 0 L 124.3 0 L 124.3 -19.61 L 136.06 -19.61 Q 139 -19.61 140.33 -18.27 Q 141.66 -16.94 141.66 -14 L 141.66 -14 L 141.66 -11.48 Q 141.66 -9.16 140.89 -7.87 Q 140.12 -6.58 138.44 -6.17 L 138.44 -6.17 L 141.94 0 L 136.48 0 L 133.25 -5.88 L 129.34 -5.88 L 129.34 0 Z M 129.34 -15.68 L 129.34 -9.8 L 134.94 -9.8 Q 136.62 -9.8 136.62 -11.48 L 136.62 -11.48 L 136.62 -14 Q 136.62 -15.68 134.94 -15.68 L 134.94 -15.68 L 129.34 -15.68 Z M 171.76 0 L 156.21 0 L 156.21 -19.61 L 171.76 -19.61 L 171.76 -15.68 L 161.26 -15.68 L 161.26 -11.89 L 169.51 -11.89 L 169.51 -7.98 L 161.26 -7.98 L 161.26 -3.92 L 171.76 -3.92 L 171.76 0 Z M 190.23 -15.68 L 184.34 -15.68 L 184.34 -19.61 L 201.14 -19.61 L 201.14 -15.68 L 195.26 -15.68 L 195.26 0 L 190.23 0 L 190.23 -15.68 Z M 230.4 0 L 214.86 0 L 214.86 -19.61 L 230.4 -19.61 L 230.4 -15.68 L 219.9 -15.68 L 219.9 -11.89 L 228.16 -11.89 L 228.16 -7.98 L 219.9 -7.98 L 219.9 -3.92 L 230.4 -3.92 L 230.4 0 Z M 263.7 -5.04 L 263.7 -5.04 Q 263.7 -7.18 264.76 -8.57 L 264.76 -8.57 Q 265.6 -9.69 267.06 -10.08 L 267.06 -10.08 Q 265.8 -10.5 265.03 -11.55 Q 264.26 -12.61 264.26 -14.27 L 264.26 -14.27 L 264.26 -14.56 Q 264.26 -17.1 265.55 -18.35 Q 266.84 -19.61 269.59 -19.61 L 269.59 -19.61 L 278.54 -19.61 L 278.54 -15.68 L 270.98 -15.68 Q 269.3 -15.68 269.3 -14 L 269.3 -14 L 269.3 -13.17 Q 269.3 -11.48 270.98 -11.48 L 270.98 -11.48 L 275.47 -11.48 L 275.88 -13.73 L 280.5 -13.73 L 280.5 -11.48 L 282.74 -11.48 L 282.74 -7.56 L 280.5 -7.56 L 280.5 -0.27 Q 274.14 0.29 269.03 0.27 L 269.03 0.27 Q 266.28 0.27 264.99 -1.01 Q 263.7 -2.3 263.7 -5.04 Z M 268.74 -5.88 L 268.74 -5.04 Q 268.74 -4.4 269.12 -4.02 Q 269.49 -3.64 270.13 -3.64 L 270.13 -3.64 Q 273.21 -3.64 275.47 -3.77 L 275.47 -3.77 L 275.47 -7.56 L 270.42 -7.56 Q 268.74 -7.56 268.74 -5.88 L 268.74 -5.88 Z M 321.65 0 L 316.61 0 L 316.61 -19.61 L 332.15 -19.61 L 332.15 -15.68 L 321.65 -15.68 L 321.65 -11.06 L 329.91 -11.06 L 329.91 -7.14 L 321.65 -7.14 L 321.65 0 Z M 350.91 0 L 345.87 0 L 345.87 -19.61 L 357.63 -19.61 Q 360.57 -19.61 361.9 -18.27 Q 363.23 -16.94 363.23 -14 L 363.23 -14 L 363.23 -11.48 Q 363.23 -9.16 362.46 -7.87 Q 361.69 -6.58 360.01 -6.17 L 360.01 -6.17 L 363.51 0 L 358.05 0 L 354.83 -5.88 L 350.91 -5.88 L 350.91 0 Z M 350.91 -15.68 L 350.91 -9.8 L 356.51 -9.8 Q 358.19 -9.8 358.19 -11.48 L 358.19 -11.48 L 358.19 -14 Q 358.19 -15.68 356.51 -15.68 L 356.51 -15.68 L 350.91 -15.68 Z M 381.28 0 L 375.83 0 L 383.24 -19.61 L 388.84 -19.61 L 396.27 0 L 390.8 0 L 389.54 -3.5 L 382.54 -3.5 L 381.28 0 Z M 386.04 -13.73 L 383.8 -7.14 L 388.28 -7.14 L 386.04 -13.73 Z M 414.47 0 L 409.42 0 L 409.42 -19.61 L 414.74 -19.61 L 420.35 -9.24 L 425.94 -19.61 L 431.26 -19.61 L 431.26 0 L 426.22 0 L 426.22 -10.92 L 422.3 -3.92 L 418.38 -3.92 L 414.47 -10.92 L 414.47 0 Z M 455.62 0 L 445.53 0 L 445.53 -3.92 L 448.06 -3.92 L 448.06 -15.68 L 445.53 -15.68 L 445.53 -19.61 L 455.62 -19.61 L 455.62 -15.68 L 453.09 -15.68 L 453.09 -3.92 L 455.62 -3.92 L 455.62 0 Z M 474.94 0 L 469.9 0 L 469.9 -19.61 L 475.21 -19.61 L 481.94 -7.83 L 481.94 -19.61 L 486.97 -19.61 L 486.97 0 L 481.65 0 L 474.94 -11.76 L 474.94 0 Z M 501.54 -5.04 L 501.54 -5.04 L 501.54 -14 Q 501.54 -16.94 502.86 -18.27 Q 504.19 -19.61 507.14 -19.61 L 507.14 -19.61 L 517.22 -19.61 L 517.22 -15.68 L 508.25 -15.68 Q 506.57 -15.68 506.58 -14 L 506.58 -14 L 506.58 -5.04 Q 506.58 -4.4 506.96 -4.02 Q 507.33 -3.64 507.97 -3.64 L 507.97 -3.64 Q 511.2 -3.64 513.85 -3.77 L 513.85 -3.77 L 513.85 -7.83 L 510.22 -7.83 L 510.22 -11.2 L 518.9 -11.2 L 518.9 -0.42 Q 512.35 0.27 506.85 0.27 L 506.85 0.27 Q 504.11 0.27 502.82 -1.01 Q 501.54 -2.3 501.54 -5.04 Z" stroke-linecap="round" />
</g>
		<g transform="matrix(1 0 0 1 10.380507812500014 18.488522503579134)" id="tagline-d4cb05c7-40cb-4d4a-be7e-0eb21d4d4376-logo-path-1"  >
<path style="stroke: none; stroke-width: 0; stroke-dasharray: none; stroke-linecap: butt; stroke-dashoffset: 0; stroke-linejoin: miter; stroke-miterlimit: 4; fill: rgb(236,122,10); fill-rule: nonzero; opacity: 1;"  paint-order="stroke"  transform=" translate(-137.74, 9.67)" d="M 0.83 -13.17 L 0.83 -13.17 L 0.83 -14 Q 0.83 -16.94 2.17 -18.27 Q 3.5 -19.61 6.44 -19.61 L 6.44 -19.61 L 16.27 -19.61 L 16.27 -15.68 L 7.56 -15.68 Q 5.88 -15.68 5.88 -14 L 5.88 -14 L 5.88 -13.44 Q 5.88 -11.76 7.56 -11.76 L 7.56 -11.76 L 12.61 -11.76 Q 15.35 -11.76 16.64 -10.47 Q 17.92 -9.19 17.92 -6.44 L 17.92 -6.44 L 17.92 -5.04 Q 17.92 -2.3 16.63 -1.01 Q 15.34 0.27 12.61 0.27 L 12.61 0.27 Q 11.18 0.27 9.57 0.22 L 9.57 0.22 L 7 0.11 Q 4.14 -0.03 1.09 -0.27 L 1.09 -0.27 L 1.09 -4.06 Q 8.76 -3.64 11.48 -3.64 L 11.48 -3.64 Q 12.13 -3.64 12.5 -4.02 Q 12.88 -4.4 12.88 -5.04 L 12.88 -5.04 L 12.88 -7.56 L 6.44 -7.56 Q 3.5 -7.56 2.17 -8.89 Q 0.83 -10.23 0.83 -13.17 Z M 37.24 0 L 32.2 0 L 32.2 -19.61 L 43.96 -19.61 Q 46.9 -19.61 48.23 -18.27 Q 49.56 -16.94 49.56 -14 L 49.56 -14 L 49.56 -11.2 Q 49.56 -8.26 48.23 -6.93 Q 46.9 -5.61 43.96 -5.61 L 43.96 -5.61 L 37.24 -5.61 L 37.24 0 Z M 37.24 -15.68 L 37.24 -9.52 L 42.84 -9.52 Q 44.52 -9.52 44.52 -11.2 L 44.52 -11.2 L 44.52 -14 Q 44.52 -15.68 42.84 -15.68 L 42.84 -15.68 L 37.24 -15.68 Z M 79.38 0 L 63.84 0 L 63.84 -19.61 L 79.38 -19.61 L 79.38 -15.68 L 68.88 -15.68 L 68.88 -11.89 L 77.14 -11.89 L 77.14 -7.98 L 68.88 -7.98 L 68.88 -3.92 L 79.38 -3.92 L 79.38 0 Z M 92.81 -5.04 L 92.81 -5.04 L 92.81 -14 Q 92.81 -16.94 94.14 -18.27 Q 95.46 -19.61 98.42 -19.61 L 98.42 -19.61 L 108.49 -19.61 L 108.49 -15.68 L 99.52 -15.68 Q 97.84 -15.68 97.86 -14 L 97.86 -14 L 97.86 -5.04 Q 97.86 -4.4 98.23 -4.02 Q 98.61 -3.64 99.2 -3.64 Q 99.78 -3.64 100.48 -3.65 Q 101.18 -3.66 101.94 -3.69 Q 102.7 -3.72 103.47 -3.75 Q 104.24 -3.77 105.46 -3.86 Q 106.67 -3.95 108.49 -4.06 L 108.49 -4.06 L 108.49 -0.27 Q 102.4 0.27 98.32 0.27 L 98.32 0.27 Q 98.23 0.27 98.13 0.27 L 98.13 0.27 Q 95.38 0.27 94.1 -1.01 Q 92.81 -2.3 92.81 -5.04 Z M 131.72 0 L 121.63 0 L 121.63 -3.92 L 124.16 -3.92 L 124.16 -15.68 L 121.63 -15.68 L 121.63 -19.61 L 131.72 -19.61 L 131.72 -15.68 L 129.19 -15.68 L 129.19 -3.92 L 131.72 -3.92 L 131.72 0 Z M 149.5 0 L 144.04 0 L 151.45 -19.61 L 157.06 -19.61 L 164.48 0 L 159.01 0 L 157.76 -3.5 L 150.76 -3.5 L 149.5 0 Z M 154.26 -13.73 L 152.01 -7.14 L 156.5 -7.14 L 154.26 -13.73 Z M 192.9 0 L 177.64 0 L 177.64 -19.61 L 182.68 -19.61 L 182.68 -3.92 L 192.9 -3.92 L 192.9 0 Z M 215.85 0 L 205.76 0 L 205.76 -3.92 L 208.29 -3.92 L 208.29 -15.68 L 205.76 -15.68 L 205.76 -19.61 L 215.85 -19.61 L 215.85 -15.68 L 213.32 -15.68 L 213.32 -3.92 L 215.85 -3.92 L 215.85 0 Z M 229.28 -13.17 L 229.28 -13.17 L 229.28 -14 Q 229.28 -16.94 230.61 -18.27 Q 231.95 -19.61 234.89 -19.61 L 234.89 -19.61 L 244.72 -19.61 L 244.72 -15.68 L 236.01 -15.68 Q 234.33 -15.68 234.33 -14 L 234.33 -14 L 234.33 -13.44 Q 234.33 -11.76 236.01 -11.76 L 236.01 -11.76 L 241.05 -11.76 Q 243.8 -11.76 245.09 -10.47 Q 246.37 -9.19 246.37 -6.44 L 246.37 -6.44 L 246.37 -5.04 Q 246.37 -2.3 245.08 -1.01 Q 243.79 0.27 241.05 0.27 L 241.05 0.27 Q 239.63 0.27 238.02 0.22 L 238.02 0.22 L 235.45 0.11 Q 232.59 -0.03 229.54 -0.27 L 229.54 -0.27 L 229.54 -4.06 Q 237.21 -3.64 239.93 -3.64 L 239.93 -3.64 Q 240.57 -3.64 240.95 -4.02 Q 241.33 -4.4 241.33 -5.04 L 241.33 -5.04 L 241.33 -7.56 L 234.89 -7.56 Q 231.95 -7.56 230.61 -8.89 Q 229.28 -10.23 229.28 -13.17 Z M 263.74 -15.68 L 257.84 -15.68 L 257.84 -19.61 L 274.65 -19.61 L 274.65 -15.68 L 268.77 -15.68 L 268.77 0 L 263.74 0 L 263.74 -15.68 Z" stroke-linecap="round" />
</g>
</g>
</g>
</svg>